<?xml version="1.0" encoding="utf-8"?>
<!-- Generator: Adobe Illustrator 25.0.1, SVG Export Plug-In . SVG Version: 6.00 Build 0)  -->
<svg version="1.1" id="Layer_1" xmlns="http://www.w3.org/2000/svg" xmlns:xlink="http://www.w3.org/1999/xlink" x="0px" y="0px"
	 viewBox="0 0 50 150" style="enable-background:new 0 0 50 150;" xml:space="preserve">
<style type="text/css">
	.st0{fill:#BBCADA;}
</style>
<g id="Layer_2_1_">
	<path class="st0" d="M12.5,5.6c3.6,0,6.6,2.9,6.6,6.6c0,0-2,27.3-2,62.8s2,62.8,2,62.8c0,3.6-2.9,6.6-6.6,6.6s-6.6-2.9-6.6-6.6
		c0,0,2-27.3,2-62.8s-2-62.8-2-62.8C5.9,8.6,8.9,5.7,12.5,5.6 M12.5,1.6C6.7,1.6,1.9,6.4,1.9,12.2c0,0.1,0,0.2,0,0.3
		c0,0.3,2,27.5,2,62.5s-1.9,62.2-2,62.5c0,0.1,0,0.2,0,0.3c0,5.8,4.7,10.6,10.6,10.6s10.6-4.7,10.6-10.6c0-0.1,0-0.2,0-0.3
		c0-0.3-2-27.6-2-62.5s1.9-62.2,2-62.5c0-0.1,0-0.2,0-0.3C23.1,6.4,18.3,1.6,12.5,1.6z"/>
	<path class="st0" d="M37.5,5.6c3.6,0,6.6,2.9,6.6,6.6c0,0-2,27.3-2,62.8s2,62.8,2,62.8c0,3.6-2.9,6.6-6.6,6.6
		c-3.6,0-6.6-2.9-6.6-6.6c0,0,2-27.3,2-62.8s-2-62.8-2-62.8C30.9,8.6,33.9,5.7,37.5,5.6 M37.5,1.6c-5.8,0-10.6,4.7-10.6,10.6
		c0,0.1,0,0.2,0,0.3c0,0.3,2,27.5,2,62.5s-1.9,62.2-1.9,62.5c0,0.1,0,0.2,0,0.3c0,5.8,4.7,10.6,10.6,10.6c5.8,0,10.6-4.7,10.6-10.6
		c0-0.1,0-0.2,0-0.3c0-0.3-2-27.6-2-62.5s1.9-62.2,2-62.5c0-0.1,0-0.2,0-0.3C48.1,6.4,43.3,1.6,37.5,1.6z"/>
	<path class="st0" d="M42.4,23c-0.4-4-0.7-5.9-0.7-5.9l-0.3-2.2c0-0.2-0.2-1.2-0.2-1.4c-0.1-0.5-0.2-1.2-0.3-1.7
		c-0.2-0.9-0.7-1.7-1.3-2.4c-1-1.2-2.8-1.4-4-0.4c-0.1,0.1-0.3,0.3-0.4,0.4c-0.6,0.7-1.1,1.5-1.3,2.4c-0.1,0.5-0.3,1.1-0.4,1.5
		c0,0.2-0.2,1.2-0.2,1.5l-0.3,2.4c0,0-0.2,1.5-0.5,5.8l-0.5-8.3v-0.8c0-0.3,0-0.6,0-0.9c0-0.6,0.2-1.1,0.3-1.7
		c0.3-1.2,0.9-2.2,1.7-3.1c1.6-1.9,4.3-2.1,6.2-0.5c0.2,0.2,0.4,0.3,0.5,0.5c0.8,0.9,1.4,1.9,1.7,3.1c0.2,0.6,0.3,1.1,0.3,1.7
		c0,0.3,0,0.6,0,0.9v0.8L42.4,23z"/>
	<path class="st0" d="M32.6,126.8c0.4,4,0.7,5.9,0.7,5.9l0.3,2.2c0,0.2,0.2,1.2,0.2,1.4c0.1,0.5,0.2,1.2,0.3,1.7
		c0.2,0.9,0.7,1.7,1.3,2.4c1,1.2,2.8,1.4,4,0.4c0.1-0.1,0.3-0.3,0.4-0.4c0.6-0.7,1.1-1.5,1.3-2.4c0.1-0.5,0.3-1.1,0.4-1.5
		c0-0.2,0.2-1.2,0.2-1.5l0.3-2.4c0,0,0.2-1.5,0.5-5.8l0.5,8.3v0.8c0,0.3,0,0.6,0,0.9c0,0.6-0.2,1.1-0.3,1.7
		c-0.3,1.2-0.9,2.2-1.7,3.1c-1.6,1.9-4.3,2.1-6.2,0.5c-0.2-0.2-0.4-0.3-0.5-0.5c-0.8-0.9-1.4-1.9-1.7-3.1c-0.2-0.6-0.3-1.1-0.3-1.7
		c0-0.3,0-0.6,0-0.9v-0.8L32.6,126.8z"/>
	<path class="st0" d="M17.4,22.7c-0.4-4-0.7-5.9-0.7-5.9l-0.3-2.2c0-0.2-0.2-1.2-0.2-1.4c-0.1-0.5-0.2-1.2-0.3-1.7
		c-0.2-0.9-0.7-1.7-1.3-2.4c-1-1.2-2.8-1.4-4-0.4c-0.1,0.1-0.3,0.3-0.4,0.4C9.7,9.8,9.2,10.6,9,11.5C8.9,12,8.7,12.6,8.6,13
		c0,0.2-0.2,1.2-0.2,1.5L8.1,17c0,0-0.2,1.5-0.5,5.8l-0.5-8.3v-0.8c0-0.3,0-0.6,0-0.9c0-0.6,0.2-1.1,0.3-1.7C7.7,9.9,8.3,8.9,9.1,8
		c1.6-1.9,4.3-2.1,6.2-0.5c0.2,0.2,0.4,0.3,0.5,0.5c0.8,0.9,1.4,1.9,1.7,3.1c0.2,0.6,0.3,1.1,0.3,1.7c0,0.3,0,0.6,0,0.9v0.8
		L17.4,22.7z"/>
	<path class="st0" d="M7.6,126.6c0.4,4,0.7,5.9,0.7,5.9l0.3,2.2c0,0.2,0.2,1.2,0.2,1.4c0.1,0.5,0.2,1.2,0.3,1.7
		c0.2,0.9,0.7,1.7,1.3,2.4c1,1.2,2.8,1.4,4,0.4c0.1-0.1,0.3-0.3,0.4-0.4c0.6-0.7,1.1-1.5,1.3-2.4c0.1-0.5,0.3-1.1,0.4-1.5
		c0-0.2,0.2-1.2,0.2-1.5l0.3-2.4c0,0,0.2-1.5,0.5-5.8l0.5,8.3v0.8c0,0.3,0,0.6,0,0.9c0,0.6-0.2,1.1-0.3,1.7
		c-0.3,1.2-0.9,2.2-1.7,3.1c-1.6,1.9-4.3,2.1-6.2,0.5c-0.2-0.2-0.4-0.3-0.5-0.5c-0.8-0.9-1.4-1.9-1.7-3.1c-0.2-0.6-0.3-1.1-0.3-1.7
		c0-0.3,0-0.6,0-0.9v-0.8L7.6,126.6z"/>
</g>
</svg>
